<?xml version="1.0" encoding="utf-8"?>
<!-- Generator: Adobe Illustrator 19.0.0, SVG Export Plug-In . SVG Version: 6.00 Build 0)  -->
<svg version="1.1" id="图层_1" xmlns="http://www.w3.org/2000/svg" xmlns:xlink="http://www.w3.org/1999/xlink" x="0px" y="0px"
	 viewBox="-5073.8 -630.3 8959.6 4095.7" enable-background="new -5073.8 -630.3 8959.6 4095.7" xml:space="preserve">
<path fill="#00a1d6" d="M3246.1,3024.5c-40.1,0-74.2,3.2-107.8-0.6c-68-7.8-135.9-6.3-204-8.3c-43.9-1.2-42.6-1.2-46.3-43.6
	c-10.9-129.7-22.8-259.2-34.4-388.7c-10.1-113.8-19.7-227.7-30.8-341.4c-10.1-104.2-22.3-208.1-33.3-312.2
	c-10.5-97.8-20.2-195.7-31.1-293.4c-13.8-122.9-28.1-245.8-42.8-368.6c-13.2-108.5-26.2-217.3-40.8-325.7
	c-22.9-168.1-46.2-336.1-70.1-504c-25.6-178.9-56.3-357-88.4-534.8c-5.8-31.9-5-33,25.5-38.1c126.7-21.6,254.1-40.1,383-37.2
	c14,0.4,28,0.6,41.9,2.4c22.7,2.8,34.4,13.8,35.7,40.2c4.5,91.9,10.9,183.8,17.7,275.6c10.9,150.4,22.7,300.8,33.9,451.1
	c7.2,96.8,13.3,193.3,20.6,289.8c11.6,155.1,23.9,310.1,35.7,465.3c7.2,94.8,13.4,189.9,20.7,284.8
	c11.1,139.3,23.3,278.4,34.6,417.5c7.2,88.6,13.6,177.3,21.1,265.8c11.1,131.2,23.2,262.4,34.6,393.6
	C3229.6,2816.1,3237.4,2918.8,3246.1,3024.5z M-1659.6-170.9c18.6,0,46.6-2,74.2,0.5c35.2,3.2,42,12.3,44.2,47.6
	c10.1,161.5,19.6,323.2,30.3,484.8c11.8,174.3,24.7,348.4,37.6,522.5c11.9,159.9,23.8,319.7,36.6,479.6
	c14,175.6,29.4,351,43.5,526.6c10.6,134.5,19.7,269,30.7,403.7c10.5,124.9,22.8,249.6,34,374.4c9.6,107.4,19.3,214.9,28.7,322.4
	c2.9,34,0.5,36.2-36.2,35.3c-96.1-2.3-191.7-13.6-287.9-10.9c-22,0.6-28.4-9.5-32.1-30.3c-7.9-45.4-6.7-91.6-11.5-137.6
	c-13.2-121.5-20.7-243.4-31.9-365.2c-10-110.6-22-220.9-33.4-331.4c-10.1-101-20.1-202-30.8-303.1c-10.8-99.2-22.1-198.5-33.4-297.8
	c-10.4-91.4-20.5-182.8-31.5-274.2c-16.3-133.9-32.4-267.8-50-401.4c-16.3-122.6-34.7-244.9-52-367.3
	c-23.6-166.4-50-332.4-79.4-497.8c-6.7-37.4-13.8-74.8-21.2-112.1c-3.8-18.8-0.4-29.7,21.1-32.6c56.6-7.6,113-19.3,169.8-24.8
	C-1783.3-165.2-1726.4-175.9-1659.6-170.9L-1659.6-170.9z M2365.7,1442.9c108.3,0,110.8,0.8,128.3,98.2
	c21.4,120.2,36.4,241.4,50.6,362.6c15,129.1,30.1,258.3,43.9,387.6c11.1,104.1,20.5,208.4,31,312.4c11,109.1,22.7,217.7,34,326.6
	c6.3,61.6,12.2,123.1,19.2,184.6c2,17.8-3.3,27.3-20.9,29.3c-37,4.2-73.7,9.1-110.6,13.1c-67.6,7.3-135.3,14.5-203,20.7
	c-34.9,3.2-37.2,1.3-43.8-32.5c-59.4-306.5-118.9-612.8-177.8-919.5c-39.2-203.9-77.3-407.9-115.7-611.8
	c-5.2-28.1-9.9-56.2-14.3-84.3c-2.6-16.1,1.8-26.5,20.1-30.8C2128.6,1470.4,2251.9,1448.4,2365.7,1442.9L2365.7,1442.9z
	 M-2183.8,1442.9c115.8,0,115.3,0.4,133.2,105.5c27.6,162.7,47.2,326.3,64.8,490.3c17.2,159.2,35.8,318.3,52.6,477.5
	c11.4,108.9,20.4,218.1,31,326.9c7.6,77.4,16.5,154.6,24.7,231.9c1,9.5,1.5,18.9,2.2,28.5c1.7,37.9,0,41-36.5,44.7
	c-72.3,7.6-144.8,13.8-217.1,21c-26.2,2.6-52.3,6.4-78.3,9c-34.6,3.2-35.7,3.1-42.5-31.9c-24.3-122.7-47.9-245.8-71.7-368.5
	c-57.1-295.7-114.8-591.1-171.5-886.7c-22.7-118.3-42.1-237-64.4-355.4c-4.1-21.6-1-31.7,21.4-37
	C-2415.1,1470.5-2293.5,1448.5-2183.8,1442.9L-2183.8,1442.9z M-654.9,2682.6v496.2c0,4.7-0.5,9.6,0.1,14.3
	c2.4,24.1-6.4,34.7-31.2,33.7c-32.6-1.4-65-0.5-97.7,0.3c-68.1,1.3-136.3-1.4-204.3,6.4c-37.6,4.4-36.9,2-40.6-37.6
	c-11.1-124.9-23.3-249.7-34.7-374.6c-10.5-115.3-20-230.9-30.7-346.2c-10.9-118.7-23-236.9-34-355.4
	c-7.6-79.1-14.2-158.1-20.9-237.2c-8.7-102.9-16.8-205.7-25.9-308.6c-3.8-43.4-0.6-49.5,42.4-54c111-12.2,222.7-15.7,334.2-10.4
	c27.8,1.5,55.4,6.9,82.3,13.4c33.9,8.1,37.6,13.1,39.4,48.5c3.7,71.4,7.4,142.8,9.3,214.4c2.2,79.5,0.4,159.1,3.3,238.6
	C-656.3,2243.6-657.4,2463.1-654.9,2682.6z M3885.5,2705.2V3175c0,7.9-0.3,15.9,0.1,23.9c1.7,20.6-7.9,27.9-27.5,27.8
	c-48.1-0.4-96.1,0-144.1,0.6c-54.3,0.5-108.4,0.3-162.6,6.1c-35.7,4.1-36,1.4-39.2-34c-14.7-162.7-30.2-325.4-45.1-488.3
	c-13.6-150.1-26.1-300.4-39.9-450.7c-14.2-155-29.7-309.6-43.6-464.5c-6.9-77.6-12.7-155.1-18.4-232.7c-2.3-33.8,1.4-39.8,39.5-42.9
	c66.3-5.2,132.3-14.2,199.2-13.1c66.6,1.3,133.2-2.4,199.4,10.2c56.1,10.8,58.9,14,62.2,73.9c9.6,176.2,6.7,353,12.9,529.3
	C3884.8,2308.4,3880.4,2496,3885.5,2705.2L3885.5,2705.2z M2252.7,590.2c39.2,2.3,70,0.4,100.7,7.2c19.6,4.5,29.4,13.3,31.4,34.3
	c9.2,101,19.2,202.1,29.3,303.2c8.1,82,16.6,164.1,25,246.1l0.8,4.7c6.7,51.7,5.1,53.1-45.2,55.9c-44.8,2.4-89.5,6.4-134.3,9.1
	c-29.4,1.8-38.8,6.8-43.6-36.1c-16.8-151.3-36.2-302.2-54.8-453.4c-5.1-42.5-10.9-84.9-17.2-127.2c-3.7-23.9,5.6-37.1,28-39
	C2202.2,592.4,2231.7,591.6,2252.7,590.2z M-2282.1,590.8c30.2,1.7,61.3-0.6,91.8,6.4c17.4,4,26.2,11.3,27.9,31.1
	c3.7,47.4,11,94.6,15.5,141.9c14.2,145.3,27.6,290.7,41,436.1c2.8,31.6,2.2,32.3-27.4,34.4c-52.5,3.8-105.1,7.7-157.7,9.9
	c-30.6,1.4-34.4-2.3-38.3-33.5c-13.3-107-25.9-214.1-38.7-321.3c-10.4-88.3-19.1-176.6-31.6-264.7c-3.5-24.3,4.5-31,23.9-34.9
	C-2344.8,589.9-2313.8,592-2282.1,590.8L-2282.1,590.8z M-685.1,990.9c0,92,0.3,183.9-0.1,276.1c0,41.3-0.5,41.6-41.6,41.1
	c-49.4,0.3-98.8-2.3-148-7.7c-31.7-4-32.4-2.9-33.3-36.6c-3.2-112.5-6.5-225-8.8-337.5c-1.7-76.2-2.6-152.1-7.2-228.2
	c-2.4-39.3-0.3-39.7,37.5-40.2c55.7-0.6,111.2,1.9,166.5,10.4c33.3,5.1,34.8,5.1,34.9,42c0.3,93.6,0.3,187.1,0.3,280.8h-0.3V990.9z
	 M3857.6,993.4c0,92.2,0.3,184.2-0.1,276.2c0,38.7-0.6,38.9-39.4,38.7c-50.9-0.5-101.8-2.9-152.6-7.2c-25.2-1.9-32.6-12.5-31-35.5
	c0.3-3.2,0-6.4,0-9.6c-3.8-177.7-7.7-355.2-11.3-532.8c-0.1-9.5-0.6-18.9-0.3-28.5c0.5-35.8,0.6-36.7,36.6-36.5
	c49.5,0.3,98.7,2.8,148.1,7.7c60.3,6,49.7,13.4,49.9,61.1C3857.8,815.6,3857.7,904.5,3857.6,993.4L3857.6,993.4z M-2406.4,1209.4
	c1.2,50.6,1.2,50.4-47.2,62.2c-32.9,8.1-65.8,16.9-98.9,24.2c-28.3,6.4-33.3,2.8-38.1-25c-33.8-188.4-67.5-376.9-101-565.5
	c-6.8-39-5-41.5,33.4-48.3c47.2-8.3,94.3-16.5,141.6-23.8c30.1-4.7,33.9-3.1,39.9,30.1c11.9,66.9,23.2,134.1,32,201.6
	c13.7,106.7,25,213.9,37.2,320.8C-2406.5,1193.6-2406.7,1201.6-2406.4,1209.4L-2406.4,1209.4z M1851.3,662.5
	c61.8-10.1,124.2-20.4,186.5-30.2c22.4-3.5,29.2,10.6,32.1,30.6c10.6,73.7,23.9,146.9,32.6,220.8c12.8,107,30.3,213.5,33.7,321.4
	c0.3,11,0.1,22.3,0.4,33.3c0.6,17.2-7.9,26-23.8,29.7c-42.2,9.5-84.5,18.9-126.6,29.1c-20.2,4.9-27-3.7-30.3-23.4
	c-12.7-75-27.3-149.6-40.2-224.4c-21.9-123.1-43.1-246.4-64.4-369.6C1850.8,675.2,1851.3,670.4,1851.3,662.5z M-992,1094.7
	c-1.8,65.5,2.2,122.6-6.8,179.7c-2.7,18-7.9,29.7-27.4,31.4c-41.7,3.5-83.3,6.8-124.8,11c-20.1,2.2-25.7-6.5-29.1-26.2
	c-9.3-58.2-7.7-117.2-13.3-175.7c-10.6-110.5-15.1-221.7-22.3-332.5c-1.8-27-4.5-53.8-6.7-80.8c-1.2-15.1,4.9-23.6,21-24.2
	c54-2.2,107.8-12,162-10.1c31.7,1.2,34.4,3.2,36.7,35.2c1.4,22.1,1,44.5,1.5,66.8L-992,1094.7L-992,1094.7z M3548.7,1031.3
	c0,76.3,0.9,152.6-0.1,228.9c-0.6,39.7-5.1,43.1-42.6,46.6c-37.1,3.5-74,6.3-111,10.2c-20.9,2.2-30.6-4-31.9-27.9
	c-5.4-101.4-12.7-202.7-19.7-304c-5.5-84-11.8-167.8-17.7-251.6c-0.6-9.6-0.1-19.2-0.8-28.7c-0.9-16.8,4.2-26.6,23-27.3
	c52.5-1.8,104.6-11.9,157.4-10c32.3,1.2,32.8,1.7,35.2,35.2C3548.5,812,3549.2,921.6,3548.7,1031.3L3548.7,1031.3z M-2561.4,2394.8
	c66.3,73,69.6,159.4,47.7,249.7c-22,90.4-72.2,164.9-133,231.7c-102,111.6-225.3,194-356.3,264.1
	c-225.7,120.6-464.9,200.7-714.5,248.1c-179.6,33.9-360.3,60-543,70c-55.7,3.1-111.2,5.6-166.9,5.2c-40.3,0-80.8,1.2-121-0.3
	c-34.2-1.3-39.2-7.2-42-42.9c-10.4-128.1-19.2-256.4-30.6-384.5c-13.3-148.5-28.9-296.8-43.3-445.3c-10.5-107.4-19.6-215-31.1-322.2
	c-13.3-126.2-28.3-252.1-42.9-378.4c-13.3-116.5-26.1-233.2-40.2-349.8c-15.7-129.1-32-258-49.3-386.9
	c-16.9-124.1-34.5-248.2-52.9-372.1c-29.8-204-62.2-407.5-97.3-610.7c-28.4-165.6-59.9-330.7-94.7-495.1c-4.6-22,2-30.8,21.4-38.9
	c185.2-76.8,369.8-155,554.9-232.2c34.4-14.3,69.8-26.4,106.4-33.2c25.3-4.7,31.9,0.5,31.1,26c-1.9,65.1,0.8,130.6-5.6,195.4
	c-1.6,17.4-2.4,34.9-2.6,52.3c-2.9,233.6-5.8,467.3,0.4,701c5.4,204.8,16.1,409.5,28,614.1c9.3,161.5,22.8,323.1,36.6,484.3
	c13.6,158.1,30.1,315.9,45.6,474c2.9,30.1,5.6,32.9,39.8,28.3c67.3-10.1,135.3-15.7,203.4-16.8c211.6-0.5,419.7,28.5,625.5,77.3
	c180.1,42.8,355.3,99.7,523.2,179.3c83.2,39.4,162.8,85,235.4,142.8C-2604.2,2349-2582.2,2371.4-2561.4,2394.8L-2561.4,2394.8z
	 M1947.1,2356.4c81.9,71.8,111.7,159.7,88.4,268.5c-19.3,89.7-63.1,165.1-121.5,232.6c-93.7,108.4-207.5,190.8-330.6,259.7
	c-241.4,135.2-498.5,223-768.9,273.7c-147.5,28-296.4,48.8-445.9,62.2c-84.7,7.3-169.8,16.4-264.9,10.5H-7.3
	c-21.6,0-33.9-6.8-35.7-32.5c-8.2-112.4-17.7-224.6-27.8-336.9c-10.8-118.5-22.7-237-33.9-355.6c-10.2-108.9-19.7-218.1-30.8-327
	c-10.2-102.7-22-205-33.2-307.6c-10.4-96.3-20.4-192.5-31.7-288.6c-13.7-116.5-28.2-233-42.6-349.4c-13.6-108.7-27-217.2-41.5-325.7
	c-15.4-116.3-31.6-232.6-48.6-348.7c-22.8-150.6-47.2-300.8-71.3-451.2c-33.6-213-72.4-425.1-116.5-636.1c-1.8-9.3-2.7-18.9-5.5-28
	c-6.7-20.5-0.3-31.4,19.8-39.3C-309.9-440-119.5-532.8,79-606c26-9.7,52.2-20.6,80.3-23.4c25.2-2.6,31.6,1.5,29.2,28.4
	c-13.3,145.8-5.6,292.3-12.5,438.3c-5.6,119-5,238.5,1,357.6c1.4,30.2,2.6,60.5,2.3,90.6c-1.5,143.1,6,286.1,13.3,428.9
	c9.3,188.8,23,377.2,37,565.7c10.1,136.1,23.3,271.9,36.1,407.8c6.8,74.4,14.1,148.6,23.3,222.6c5,40.8,7,41.2,47.1,35.8
	c70.7-9.6,141.4-17.4,212.9-16.4c250.6,3.2,496.2,42.8,737.3,111.5c163.2,46.3,322,104.2,472,185.2
	C1825.9,2262.6,1889.3,2306.1,1947.1,2356.4z M-3840.2,3061.5c92.7-44.3,542.6-395.9,578.3-453.2c-218.4-94.1-437.5-181.5-673.1-253
	L-3840.2,3061.5L-3840.2,3061.5z M1269.9,2631.3c11.5-12.4,10.2-22-5.4-28.9c-31.1-14.2-61.9-29.3-93.4-42.2
	c-168.1-68.7-336.9-135.3-510.1-189.6c-15.1-4.6-30.6-15.1-49.9-6.1l93.3,694c13.8,3.1,19.2-3.3,25.3-7.7
	c157.3-115.5,315.6-229.5,466.7-353.6C1221.9,2676.4,1247.1,2655.5,1269.9,2631.3L1269.9,2631.3z"/>
</svg>
